<mxfile host="app.diagrams.net" agent="Mozilla/5.0 (Windows NT 10.0; Win64; x64) AppleWebKit/537.36 (KHTML, like Gecko) Chrome/132.0.0.0 Safari/537.36" version="26.0.10">
  <diagram name="Page-1" id="b5b7bab2-c9e2-2cf4-8b2a-24fd1a2a6d21">
    <mxGraphModel dx="372" dy="-560" grid="1" gridSize="10" guides="1" tooltips="1" connect="1" arrows="1" fold="1" page="1" pageScale="1" pageWidth="827" pageHeight="1169" background="none" math="0" shadow="0">
      <root>
        <mxCell id="0" />
        <mxCell id="1" parent="0" />
        <mxCell id="6e0c8c40b5770093-72" value="" style="shape=folder;fontStyle=1;spacingTop=10;tabWidth=194;tabHeight=22;tabPosition=left;html=1;rounded=0;shadow=0;comic=0;labelBackgroundColor=none;strokeWidth=1;fillColor=none;fontFamily=Verdana;fontSize=10;align=center;" parent="1" vertex="1">
          <mxGeometry x="1270" y="1450" width="1001" height="620" as="geometry" />
        </mxCell>
        <mxCell id="9qTncuzwOLMPVxKCaAhH-1" value="Application Server" style="verticalAlign=top;align=left;spacingTop=8;spacingLeft=2;spacingRight=12;shape=cube;size=10;direction=south;fontStyle=4;html=1;whiteSpace=wrap;" vertex="1" parent="1">
          <mxGeometry x="1910" y="1510" width="260" height="500" as="geometry" />
        </mxCell>
        <mxCell id="9qTncuzwOLMPVxKCaAhH-2" value="&amp;lt;&amp;lt;device&amp;gt;&amp;gt;" style="verticalAlign=top;align=center;spacingTop=8;spacingLeft=2;spacingRight=12;shape=cube;size=10;direction=south;fontStyle=4;html=1;whiteSpace=wrap;" vertex="1" parent="1">
          <mxGeometry x="1620" y="1510" width="160" height="110" as="geometry" />
        </mxCell>
        <mxCell id="9qTncuzwOLMPVxKCaAhH-3" value=":UserClient" style="text;html=1;align=center;verticalAlign=middle;resizable=0;points=[];autosize=1;strokeColor=none;fillColor=none;" vertex="1" parent="1">
          <mxGeometry x="1650" y="1530" width="80" height="30" as="geometry" />
        </mxCell>
        <mxCell id="9qTncuzwOLMPVxKCaAhH-4" value="&amp;lt;&amp;lt;artefact&amp;gt;&amp;gt;&lt;div&gt;Flutter APP&lt;/div&gt;" style="html=1;whiteSpace=wrap;" vertex="1" parent="1">
          <mxGeometry x="1635" y="1560" width="110" height="50" as="geometry" />
        </mxCell>
        <mxCell id="9qTncuzwOLMPVxKCaAhH-7" value="" style="endArrow=none;html=1;rounded=0;exitX=0.115;exitY=1.003;exitDx=0;exitDy=0;exitPerimeter=0;entryX=0.518;entryY=0.013;entryDx=0;entryDy=0;entryPerimeter=0;" edge="1" parent="1" source="9qTncuzwOLMPVxKCaAhH-1" target="9qTncuzwOLMPVxKCaAhH-2">
          <mxGeometry width="50" height="50" relative="1" as="geometry">
            <mxPoint x="1920" y="1810" as="sourcePoint" />
            <mxPoint x="1790" y="1514" as="targetPoint" />
          </mxGeometry>
        </mxCell>
        <mxCell id="9qTncuzwOLMPVxKCaAhH-8" value="Notification Service" style="verticalAlign=top;align=center;spacingTop=8;spacingLeft=2;spacingRight=12;shape=cube;size=10;direction=south;fontStyle=4;html=1;whiteSpace=wrap;" vertex="1" parent="1">
          <mxGeometry x="1580" y="1860" width="230" height="160" as="geometry" />
        </mxCell>
        <mxCell id="9qTncuzwOLMPVxKCaAhH-11" value="Whatapp BOT API" style="shape=folder;fontStyle=1;spacingTop=10;tabWidth=40;tabHeight=14;tabPosition=left;html=1;whiteSpace=wrap;" vertex="1" parent="1">
          <mxGeometry x="1590" y="1900" width="130" height="50" as="geometry" />
        </mxCell>
        <mxCell id="9qTncuzwOLMPVxKCaAhH-12" value="Telegram BOT API" style="shape=folder;fontStyle=1;spacingTop=10;tabWidth=40;tabHeight=14;tabPosition=left;html=1;whiteSpace=wrap;" vertex="1" parent="1">
          <mxGeometry x="1660" y="1960" width="130" height="50" as="geometry" />
        </mxCell>
        <mxCell id="9qTncuzwOLMPVxKCaAhH-13" value="Whatapp BOT" style="verticalAlign=top;align=center;spacingTop=8;spacingLeft=2;spacingRight=12;shape=cube;size=10;direction=south;fontStyle=4;html=1;whiteSpace=wrap;" vertex="1" parent="1">
          <mxGeometry x="1326" y="1860" width="180" height="50" as="geometry" />
        </mxCell>
        <mxCell id="9qTncuzwOLMPVxKCaAhH-14" value=":UserClient" style="text;html=1;align=center;verticalAlign=middle;resizable=0;points=[];autosize=1;strokeColor=none;fillColor=none;" vertex="1" parent="1">
          <mxGeometry x="1366" y="1880" width="80" height="30" as="geometry" />
        </mxCell>
        <mxCell id="9qTncuzwOLMPVxKCaAhH-17" value="Telegram BOT" style="verticalAlign=top;align=center;spacingTop=8;spacingLeft=2;spacingRight=12;shape=cube;size=10;direction=south;fontStyle=4;html=1;whiteSpace=wrap;" vertex="1" parent="1">
          <mxGeometry x="1326" y="1970" width="180" height="50" as="geometry" />
        </mxCell>
        <mxCell id="9qTncuzwOLMPVxKCaAhH-18" value=":UserClient" style="text;html=1;align=center;verticalAlign=middle;resizable=0;points=[];autosize=1;strokeColor=none;fillColor=none;" vertex="1" parent="1">
          <mxGeometry x="1366" y="1990" width="80" height="30" as="geometry" />
        </mxCell>
        <mxCell id="9qTncuzwOLMPVxKCaAhH-21" value="Delivery Msg" style="text;html=1;align=center;verticalAlign=middle;resizable=0;points=[];autosize=1;strokeColor=none;fillColor=none;" vertex="1" parent="1">
          <mxGeometry x="1496" y="1960" width="90" height="30" as="geometry" />
        </mxCell>
        <mxCell id="9qTncuzwOLMPVxKCaAhH-22" value="" style="endArrow=none;html=1;rounded=0;exitX=0.838;exitY=0.996;exitDx=0;exitDy=0;exitPerimeter=0;" edge="1" parent="1">
          <mxGeometry width="50" height="50" relative="1" as="geometry">
            <mxPoint x="1580.92" y="1980" as="sourcePoint" />
            <mxPoint x="1506" y="1980.417938394373" as="targetPoint" />
          </mxGeometry>
        </mxCell>
        <mxCell id="9qTncuzwOLMPVxKCaAhH-23" value="Delivery Msg" style="text;html=1;align=center;verticalAlign=middle;resizable=0;points=[];autosize=1;strokeColor=none;fillColor=none;" vertex="1" parent="1">
          <mxGeometry x="1500" y="1850" width="90" height="30" as="geometry" />
        </mxCell>
        <mxCell id="9qTncuzwOLMPVxKCaAhH-24" value="" style="endArrow=none;html=1;rounded=0;exitX=0.169;exitY=1.004;exitDx=0;exitDy=0;exitPerimeter=0;" edge="1" parent="1">
          <mxGeometry width="50" height="50" relative="1" as="geometry">
            <mxPoint x="1579.08" y="1870.9099999999999" as="sourcePoint" />
            <mxPoint x="1506" y="1869.9958278145693" as="targetPoint" />
          </mxGeometry>
        </mxCell>
        <mxCell id="9qTncuzwOLMPVxKCaAhH-25" value="" style="endArrow=none;html=1;rounded=0;exitX=0.86;exitY=0.996;exitDx=0;exitDy=0;exitPerimeter=0;" edge="1" parent="1" source="9qTncuzwOLMPVxKCaAhH-1" target="9qTncuzwOLMPVxKCaAhH-8">
          <mxGeometry width="50" height="50" relative="1" as="geometry">
            <mxPoint x="1910" y="1541" as="sourcePoint" />
            <mxPoint x="1810" y="1444" as="targetPoint" />
          </mxGeometry>
        </mxCell>
        <mxCell id="9qTncuzwOLMPVxKCaAhH-26" value="API Calls" style="text;html=1;align=center;verticalAlign=middle;resizable=0;points=[];autosize=1;strokeColor=none;fillColor=none;" vertex="1" parent="1">
          <mxGeometry x="1820" y="1910" width="70" height="30" as="geometry" />
        </mxCell>
        <mxCell id="9qTncuzwOLMPVxKCaAhH-27" value="Databases" style="shape=datastore;whiteSpace=wrap;html=1;" vertex="1" parent="1">
          <mxGeometry x="1996" y="1590" width="72" height="80" as="geometry" />
        </mxCell>
        <mxCell id="9qTncuzwOLMPVxKCaAhH-28" value="HTTPS/internet" style="text;html=1;align=center;verticalAlign=middle;resizable=0;points=[];autosize=1;strokeColor=none;fillColor=none;" vertex="1" parent="1">
          <mxGeometry x="1790" y="1540" width="110" height="30" as="geometry" />
        </mxCell>
        <mxCell id="9qTncuzwOLMPVxKCaAhH-29" value="OpenWheaterMap Service&lt;div&gt;&lt;br&gt;&lt;/div&gt;" style="verticalAlign=top;align=center;spacingTop=8;spacingLeft=2;spacingRight=12;shape=cube;size=10;direction=south;fontStyle=4;html=1;whiteSpace=wrap;" vertex="1" parent="1">
          <mxGeometry x="1580" y="1720" width="230" height="100" as="geometry" />
        </mxCell>
        <mxCell id="9qTncuzwOLMPVxKCaAhH-30" value="" style="shape=folder;fontStyle=1;spacingTop=10;tabWidth=40;tabHeight=14;tabPosition=left;html=1;whiteSpace=wrap;" vertex="1" parent="1">
          <mxGeometry x="1609" y="1755" width="130" height="50" as="geometry" />
        </mxCell>
        <mxCell id="9qTncuzwOLMPVxKCaAhH-32" value="Wheater API" style="text;html=1;align=center;verticalAlign=middle;resizable=0;points=[];autosize=1;strokeColor=none;fillColor=none;" vertex="1" parent="1">
          <mxGeometry x="1628" y="1775" width="90" height="30" as="geometry" />
        </mxCell>
        <mxCell id="9qTncuzwOLMPVxKCaAhH-34" value="" style="endArrow=none;html=1;rounded=0;exitX=0.65;exitY=0;exitDx=0;exitDy=0;exitPerimeter=0;entryX=0.548;entryY=1.004;entryDx=0;entryDy=0;entryPerimeter=0;" edge="1" parent="1" source="9qTncuzwOLMPVxKCaAhH-29" target="9qTncuzwOLMPVxKCaAhH-1">
          <mxGeometry width="50" height="50" relative="1" as="geometry">
            <mxPoint x="1920" y="1800" as="sourcePoint" />
            <mxPoint x="1970" y="1750" as="targetPoint" />
          </mxGeometry>
        </mxCell>
        <mxCell id="9qTncuzwOLMPVxKCaAhH-36" value="Request" style="text;html=1;align=center;verticalAlign=middle;resizable=0;points=[];autosize=1;strokeColor=none;fillColor=none;" vertex="1" parent="1">
          <mxGeometry x="1820" y="1755" width="70" height="30" as="geometry" />
        </mxCell>
        <mxCell id="9qTncuzwOLMPVxKCaAhH-37" value="HTTPS/internet" style="text;html=1;align=center;verticalAlign=middle;resizable=0;points=[];autosize=1;strokeColor=none;fillColor=none;" vertex="1" parent="1">
          <mxGeometry x="1800" y="1780" width="110" height="30" as="geometry" />
        </mxCell>
        <mxCell id="9qTncuzwOLMPVxKCaAhH-40" value="response" style="html=1;verticalAlign=bottom;endArrow=open;dashed=1;endSize=8;curved=0;rounded=0;entryX=0.963;entryY=1.017;entryDx=0;entryDy=0;entryPerimeter=0;exitX=0;exitY=0;exitDx=45;exitDy=5;exitPerimeter=0;" edge="1" parent="1" source="9qTncuzwOLMPVxKCaAhH-17" target="9qTncuzwOLMPVxKCaAhH-8">
          <mxGeometry relative="1" as="geometry">
            <mxPoint x="1986" y="1740" as="sourcePoint" />
            <mxPoint x="1906" y="1740" as="targetPoint" />
          </mxGeometry>
        </mxCell>
        <mxCell id="9qTncuzwOLMPVxKCaAhH-42" value="response" style="html=1;verticalAlign=bottom;endArrow=open;dashed=1;endSize=8;curved=0;rounded=0;entryX=0.963;entryY=1.017;entryDx=0;entryDy=0;entryPerimeter=0;exitX=0;exitY=0;exitDx=45;exitDy=5;exitPerimeter=0;" edge="1" parent="1">
          <mxGeometry relative="1" as="geometry">
            <mxPoint x="1503.5" y="1901" as="sourcePoint" />
            <mxPoint x="1578.5" y="1900" as="targetPoint" />
          </mxGeometry>
        </mxCell>
        <mxCell id="9qTncuzwOLMPVxKCaAhH-43" value="Service Cronjob" style="verticalAlign=top;align=left;spacingTop=8;spacingLeft=2;spacingRight=12;shape=cube;size=10;direction=south;fontStyle=4;html=1;whiteSpace=wrap;" vertex="1" parent="1">
          <mxGeometry x="1939.5" y="1810" width="180.5" height="100" as="geometry" />
        </mxCell>
        <mxCell id="9qTncuzwOLMPVxKCaAhH-44" value="Redis" style="shape=module;align=left;spacingLeft=20;align=center;verticalAlign=top;whiteSpace=wrap;html=1;" vertex="1" parent="1">
          <mxGeometry x="1968" y="1850" width="112" height="50" as="geometry" />
        </mxCell>
        <mxCell id="9qTncuzwOLMPVxKCaAhH-45" value="Caching data" style="text;html=1;align=center;verticalAlign=middle;resizable=0;points=[];autosize=1;strokeColor=none;fillColor=none;" vertex="1" parent="1">
          <mxGeometry x="1984.75" y="1870" width="90" height="30" as="geometry" />
        </mxCell>
        <mxCell id="9qTncuzwOLMPVxKCaAhH-46" value="Deployment RemindME APP" style="text;html=1;align=center;verticalAlign=middle;resizable=0;points=[];autosize=1;strokeColor=none;fillColor=none;" vertex="1" parent="1">
          <mxGeometry x="1270" y="1450" width="180" height="30" as="geometry" />
        </mxCell>
        <mxCell id="9qTncuzwOLMPVxKCaAhH-47" value="&amp;lt;&amp;lt;protocol&amp;gt;&amp;gt;" style="text;html=1;align=center;verticalAlign=middle;resizable=0;points=[];autosize=1;strokeColor=none;fillColor=none;" vertex="1" parent="1">
          <mxGeometry x="1800" y="1560" width="90" height="30" as="geometry" />
        </mxCell>
      </root>
    </mxGraphModel>
  </diagram>
</mxfile>
